<svg version="1.1" id="Layer_1" xmlns="http://www.w3.org/2000/svg" xmlns:xlink="http://www.w3.org/1999/xlink" x="0px" y="0px"
	 width="100%" viewBox="0 0 1024 512" enable-background="new 0 0 1024 512" xml:space="preserve">
<style>
#Layer_1{overflow:visible}
.pig{
transform-origin:50% 60%;
animation:float 1.8s ease-in-out infinite;
}
@keyframes float{
0%,100%{transform:translateY(0)}
50%{transform:translateY(-6px)}
}
</style>
<g class="pig">

<path fill="#000000" opacity="1.000000" stroke="none" 
	d="
M655.940918,253.407928 
	C655.592102,249.143478 656.319763,245.115646 651.495178,242.890350 
	C649.753418,242.086975 648.442505,241.484848 646.535217,241.741714 
	C630.093445,243.956055 613.950378,224.637238 619.101990,208.984756 
	C620.546448,204.595764 623.458496,201.257370 627.714905,198.055252 
	C618.064514,193.516708 608.744690,191.798157 599.006409,192.636810 
	C593.533875,193.108063 588.124939,194.265762 583.023560,196.411194 
	C579.843872,197.748444 577.745911,197.132492 577.206787,193.570419 
	C576.133423,186.478745 571.205750,182.613327 565.418091,179.712616 
	C561.898132,177.948441 557.997681,176.943314 553.563660,175.342957 
	C552.389404,183.262543 549.259399,190.427246 550.481201,198.149887 
	C551.096252,202.037079 552.307129,205.902084 557.031677,207.297287 
	C559.753723,208.101135 560.002502,210.415405 558.298767,212.467712 
	C553.778870,217.912521 550.196411,223.833618 547.997986,230.595276 
	C547.665527,231.617554 546.689331,232.496429 545.858459,233.280075 
	C540.261230,238.559448 537.664795,244.847168 539.160278,252.582718 
	C539.317200,253.394135 539.330994,254.241272 539.331116,255.071854 
	C539.331177,255.548401 539.169983,256.024963 539.028320,256.786652 
	C535.206970,257.099792 533.136902,255.523529 532.778381,251.667542 
	C532.114929,244.532257 533.480774,237.854248 538.660400,232.738907 
	C544.330322,227.139435 545.108215,218.909897 550.070312,212.991165 
	C551.295654,211.529617 549.728027,210.219864 548.854309,209.059372 
	C544.707458,203.551254 543.474548,197.375732 544.591797,190.658630 
	C545.463501,185.417770 546.255554,180.160385 547.281311,174.949371 
	C548.317932,169.683197 550.703003,168.307846 555.910034,169.864243 
	C566.606201,173.061295 576.837830,176.931702 582.095703,188.037842 
	C583.523682,191.054153 585.948425,189.097198 587.794861,188.636017 
	C603.651245,184.675629 618.833252,186.132141 633.293274,193.949280 
	C638.917114,196.989532 643.996094,200.777206 648.022156,205.743134 
	C649.805420,207.942764 651.445557,208.329559 654.014709,207.424576 
	C662.645264,204.384476 671.457214,205.546265 680.191895,206.835114 
	C683.993896,207.396133 685.432739,210.152603 684.676636,213.853622 
	C682.037537,226.771515 678.157349,238.726456 664.033081,243.963364 
	C660.079956,245.429047 660.761475,249.829819 662.107666,252.591202 
	C666.529236,261.661072 670.166138,270.841522 670.483826,281.085419 
	C670.551208,283.258331 672.295532,283.641418 674.086609,283.656067 
	C677.751404,283.686096 681.416870,283.659363 685.081116,283.718628 
	C687.245850,283.753662 689.871338,283.590607 690.061523,286.557556 
	C690.259888,289.650940 687.525269,289.759033 685.428345,289.776276 
	C675.936829,289.854187 666.436096,289.978668 656.955261,289.633087 
	C653.022461,289.489777 649.408569,289.729523 645.802429,291.378723 
	C641.565125,293.316559 637.211975,295.103821 632.549866,295.707062 
	C626.461060,296.494843 620.772888,295.513092 616.222900,290.941681 
	C615.191833,289.905731 614.065125,289.531372 612.654480,289.536835 
	C594.357483,289.607727 576.060425,289.667023 557.763367,289.681305 
	C556.152771,289.682587 554.541931,289.347656 552.333435,289.102539 
	C554.157043,283.092865 558.366638,277.956390 554.940430,271.489777 
	C558.513428,271.320435 560.444397,273.013672 561.361877,274.921478 
	C564.847290,282.169159 571.702271,283.150269 578.184082,283.492737 
	C589.813354,284.107147 601.498108,283.632416 613.158752,283.725983 
	C615.713013,283.746460 617.039978,282.582611 618.159912,280.443024 
	C621.926758,273.246765 628.215515,269.737823 636.101196,269.900055 
	C643.834167,270.059174 649.764832,273.735779 652.928467,281.153259 
	C654.815308,285.577118 658.670654,283.597260 661.641113,283.446625 
	C664.738770,283.289490 663.985718,280.373993 663.927673,278.305023 
	C663.677551,269.383148 660.050293,261.534088 655.940918,253.407928 
M649.039978,218.933167 
	C649.743652,220.932693 649.867004,223.178497 651.794312,225.191360 
	C653.144226,223.930161 654.478882,222.741776 655.746765,221.485947 
	C658.067810,219.186859 660.908142,217.854996 664.006165,217.043335 
	C665.505676,216.650452 667.242615,216.517303 667.789368,218.361328 
	C668.259399,219.946472 666.765869,220.669907 665.568176,221.237061 
	C662.678345,222.605438 659.822632,224.099487 658.046997,226.830475 
	C656.511292,229.192383 654.446960,229.825256 650.311035,228.788177 
	C653.945190,232.355774 649.742676,237.350357 654.762512,238.681870 
	C658.324829,239.626724 662.056274,238.593124 665.340332,236.706192 
	C666.629700,235.965347 667.896667,235.114578 668.987915,234.111588 
	C675.084106,228.508469 677.012207,221.041656 678.691711,213.078613 
	C669.320190,210.838760 660.558228,210.325867 652.071655,214.548477 
	C650.559326,215.300964 648.344910,215.688904 649.039978,218.933167 
M632.348877,282.967010 
	C634.353638,283.496643 635.802063,284.824005 637.318420,286.165649 
	C640.612732,289.080444 643.490112,286.416718 645.655640,284.623566 
	C648.157349,282.552155 645.748779,280.470398 644.161316,278.820740 
	C640.332458,274.841919 629.947693,273.741180 626.324646,280.289978 
	C627.875610,281.575958 629.563538,282.575867 632.348877,282.967010 
z"/>
<path fill="#000000" opacity="1.000000" stroke="none" 
	d="
M421.002899,283.709656 
	C430.391144,283.087097 439.502960,285.352539 448.149872,281.459961 
	C451.096771,280.133362 453.616302,278.689301 455.370819,275.713989 
	C459.338684,268.985291 466.610291,268.133575 473.204041,266.095062 
	C475.203247,271.804901 474.838623,272.397369 469.475342,273.422638 
	C466.171570,274.054199 463.154572,275.302185 460.715210,278.884827 
	C465.150879,280.585236 469.177246,282.347839 473.350769,283.632263 
	C475.312683,284.236023 476.963409,284.800110 476.930115,287.010559 
	C476.891968,289.542633 474.703339,289.741974 472.914948,289.744293 
	C467.755829,289.750946 462.596680,289.450226 457.437012,289.433655 
	C441.604065,289.382690 425.770691,289.442047 409.937897,289.372162 
	C407.138397,289.359802 405.292511,290.590515 402.957153,292.099945 
	C398.996613,294.659790 394.245636,296.518066 389.145294,295.943726 
	C387.828217,295.795441 386.416718,295.650421 385.255371,295.081635 
	C369.759521,287.493103 353.114105,289.895294 336.799347,289.343079 
	C334.402985,289.261963 330.397339,290.660736 330.381287,286.776123 
	C330.364746,282.773590 334.425232,283.959900 337.060760,283.706055 
	C340.992676,283.327362 345.825867,285.360718 348.645355,282.709198 
	C351.205139,280.301941 349.937469,275.450867 350.792480,271.754883 
	C352.147888,265.895660 353.930023,260.183716 356.822449,254.868927 
	C357.776215,253.116333 358.614655,251.381287 358.736267,249.269302 
	C358.961609,245.355774 358.587219,242.457748 353.985046,240.823883 
	C348.867462,239.007050 345.207855,234.916336 342.664581,230.003021 
	C339.653748,224.186523 337.734711,218.014252 336.545044,211.595016 
	C335.741425,207.259064 337.686981,204.659775 341.891357,204.269409 
	C350.141541,203.503387 358.475891,202.066467 366.607941,204.975464 
	C369.137054,205.880173 370.811401,205.540756 372.714844,203.450729 
	C388.914795,185.662918 408.995483,180.246033 432.111267,185.597946 
	C436.103027,186.522141 438.176727,186.293655 440.434143,182.352859 
	C446.197601,172.291473 456.619568,168.982620 466.946075,166.090744 
	C469.953796,165.248413 472.085358,167.722870 472.394531,170.663727 
	C473.142273,177.775787 475.318787,184.657288 475.537384,191.852631 
	C475.731689,198.249054 473.345703,203.521851 468.569824,208.417587 
	C474.571747,215.267944 475.776581,224.682571 482.131256,231.452957 
	C487.514618,237.188538 487.968475,244.677277 487.215759,252.178040 
	C486.868988,255.633972 484.593994,256.464813 481.566223,256.056976 
	C481.330566,255.719574 480.949982,255.419266 480.991882,255.199539 
	C482.914185,245.117310 480.277313,236.768082 472.902405,229.310562 
	C469.817932,226.191498 469.680634,220.653397 466.832794,216.867538 
	C464.833527,214.209824 462.688568,211.660538 460.721741,208.979858 
	C458.405792,205.823288 459.229095,203.633942 463.131042,203.368805 
	C465.229553,203.226212 466.080505,202.133286 466.964600,200.748962 
	C469.501862,196.776077 470.319550,192.391968 469.464539,187.809174 
	C468.552979,182.923508 467.349213,178.092377 466.276031,173.250946 
	C456.110748,173.644119 445.814575,181.164429 443.479004,190.347702 
	C442.509979,194.157852 440.805237,194.899292 437.416351,193.569962 
	C432.593719,191.678268 427.559021,190.554672 422.452637,189.710464 
	C420.629303,189.409012 418.861542,189.194901 416.655548,189.947662 
	C418.104645,196.851456 420.959381,203.299805 421.566376,210.254715 
	C421.826019,213.229416 422.275940,216.192307 422.758179,219.141159 
	C423.109253,221.287689 423.124451,223.352493 420.640167,224.013214 
	C418.168243,224.670700 417.055695,222.752731 416.224335,220.865250 
	C414.075897,215.987366 412.010345,211.073090 409.886871,206.184128 
	C408.493378,202.975800 407.129456,199.751495 405.622864,196.596130 
	C403.147491,191.411804 399.828522,190.816330 395.217041,194.414307 
	C392.856110,196.256348 394.333801,198.026413 395.083466,199.716156 
	C398.395264,207.181091 401.630127,214.668564 403.761261,222.578690 
	C404.020905,223.542343 404.216431,224.523911 404.494690,225.481766 
	C405.037933,227.351807 405.322693,229.241898 403.180634,230.233459 
	C400.930786,231.274933 399.315369,230.032135 398.149353,228.211731 
	C394.645050,222.740662 391.211060,217.224594 387.723267,211.742874 
	C386.651215,210.057907 385.602142,208.338882 384.344086,206.797394 
	C383.207245,205.404388 382.368652,202.588226 379.817749,204.493469 
	C377.810760,205.992462 375.109528,207.715744 377.691742,210.958023 
	C378.863800,212.429749 379.184906,214.008682 377.538483,215.354553 
	C375.839172,216.743652 374.419342,215.583603 373.050812,214.622375 
	C363.679047,208.039703 353.469513,208.384293 342.971436,210.665787 
	C343.709290,226.053665 351.398682,235.298569 365.295837,237.687683 
	C366.877502,237.959595 368.307037,238.268143 368.689697,240.045578 
	C369.033081,241.640488 368.008942,242.612823 366.712616,243.108093 
	C364.799286,243.839096 364.051422,245.292862 364.470490,247.044891 
	C365.507874,251.381912 363.364288,254.757706 361.599854,258.350189 
	C358.565857,264.527588 356.481110,271.024017 356.230804,277.958893 
	C356.154266,280.079498 355.083862,283.267242 358.613281,283.483429 
	C361.607483,283.666870 365.080597,285.144806 367.230652,280.793243 
	C371.870758,271.402039 381.731934,267.594727 391.649902,270.853333 
	C396.283020,272.375580 400.134277,275.075562 402.033630,279.609985 
	C403.455170,283.003815 405.629059,283.939728 409.006073,283.761139 
	C412.828796,283.558990 416.670227,283.711731 421.002899,283.709656 
M377.141724,286.311584 
	C379.389984,287.695496 381.235168,287.637207 383.206635,285.483765 
	C386.258514,282.150177 391.662018,283.098175 394.906982,279.756165 
	C389.335571,274.278625 381.161285,273.962891 375.512451,278.832916 
	C372.052307,281.816010 372.318695,283.708191 377.141724,286.311584 
z"/>
<path fill="#000000" opacity="1.000000" stroke="none" 
	d="
M484.878693,292.854401 
	C481.609314,284.850342 480.885345,276.731232 479.978851,268.644196 
	C479.540070,264.729584 481.006012,262.297058 484.988342,261.354156 
	C500.472229,257.688049 516.140930,257.256104 531.328735,261.633118 
	C536.410522,263.097656 541.907959,266.184418 546.306458,269.710968 
	C553.237610,275.268127 549.537170,288.108459 540.070374,290.693420 
	C534.711670,292.156677 530.193420,293.508728 527.964355,299.156097 
	C527.068604,301.425629 524.671631,302.226898 522.203369,302.520386 
	C512.572021,303.665680 502.951874,303.548798 493.354614,302.271667 
	C488.163757,301.580933 486.972137,296.996796 484.878693,292.854401 
M498.322296,281.131378 
	C498.717255,283.179138 499.812561,284.887817 501.364532,286.148621 
	C503.634338,287.992462 505.440216,290.883026 508.667450,290.941406 
	C511.995178,291.001648 518.735107,282.937561 518.641663,279.519348 
	C518.586853,277.516510 517.692261,276.057861 515.932861,275.092743 
	C514.241028,274.164703 512.735291,274.558380 511.316406,275.665192 
	C510.410004,276.372223 509.526215,277.108215 508.672455,277.798767 
	C501.501495,273.106567 499.531616,273.618988 498.322296,281.131378 
M535.535767,277.092804 
	C535.792358,279.780823 533.571533,282.374542 534.987122,285.153137 
	C540.713196,284.276672 543.333130,281.661255 542.917786,277.433502 
	C542.700745,275.224701 541.666016,273.671234 539.374756,273.236969 
	C536.928711,272.773346 536.201233,274.413116 535.535767,277.092804 
M507.548615,266.115601 
	C511.614227,266.115601 515.679810,266.115601 519.745422,266.115601 
	C512.540161,265.099091 505.352386,264.077332 498.177917,266.104370 
	C500.980957,266.104370 503.783966,266.104370 507.548615,266.115601 
z"/>
<path fill="#000000" opacity="1.000000" stroke="none" 
	d="
M762.311829,327.257965 
	C763.849060,327.361328 765.030762,327.385986 766.154663,327.653259 
	C768.537659,328.220093 771.687195,328.358307 771.923462,331.425293 
	C772.128052,334.081512 769.312134,335.050720 767.264282,336.062347 
	C763.748535,337.799042 760.316772,337.604218 756.769958,335.687378 
	C751.110107,332.628510 746.267395,334.355560 743.980469,340.368439 
	C742.841797,343.362122 740.852234,344.087891 738.183899,343.861359 
	C733.028259,343.423676 733.324524,346.894318 733.111633,350.361450 
	C732.856201,354.520264 735.292358,354.956055 738.475708,354.893677 
	C740.800110,354.848145 743.152100,354.860260 745.448914,355.167450 
	C747.419556,355.431000 748.924622,356.677887 748.778198,358.858063 
	C748.637329,360.955414 747.221252,362.202606 745.116577,362.220306 
	C734.791260,362.307281 724.465271,362.341705 714.139526,362.330444 
	C712.041382,362.328156 710.618896,361.237366 710.555908,359.002472 
	C710.493286,356.780457 711.906799,355.647369 713.920166,355.362427 
	C715.724365,355.107056 717.566956,355.102844 719.394287,355.033508 
	C725.295593,354.809601 726.023499,353.951508 725.913269,348.275452 
	C725.857239,345.389313 724.854248,343.927277 721.815125,344.005585 
	C719.207581,344.072815 716.312256,343.748077 716.379761,340.372192 
	C716.454590,336.628143 719.652283,336.805542 722.346069,336.780762 
	C726.676453,336.740875 731.008301,336.810242 735.337585,336.728607 
	C741.813660,336.606537 743.539124,333.901489 740.472107,328.231659 
	C737.999817,323.661438 738.524963,319.597839 741.657410,315.741272 
	C743.559082,313.400085 745.503845,313.356415 747.198608,316.108215 
	C750.180176,320.949371 749.942627,325.757111 747.307190,330.754089 
	C749.220520,328.925507 751.212158,327.171234 753.032227,325.254089 
	C758.046875,319.972107 758.176758,317.243011 753.706177,311.467682 
	C750.850037,307.778046 750.593628,303.822845 752.514343,299.744202 
	C754.258667,296.040161 756.864807,295.784149 759.333618,298.998657 
	C762.390503,302.979004 763.062561,307.424438 761.851379,312.443970 
	C764.165283,308.599487 768.110229,305.758850 767.043152,300.279663 
	C766.036194,295.108917 768.205750,290.774384 772.027954,287.363678 
	C775.609375,284.167816 778.123230,284.992462 778.956482,289.605682 
	C779.808105,294.320435 778.922668,298.979889 775.054138,301.840424 
	C770.897217,304.914246 768.997192,309.127747 766.973511,313.662018 
	C770.781494,310.087280 775.262451,309.003174 780.238953,309.586243 
	C781.557983,309.740784 783.034607,309.621918 783.645081,311.136749 
	C784.256714,312.654358 783.026855,313.591553 782.265320,314.635162 
	C779.674561,318.185791 776.281433,321.314301 771.822754,320.070374 
	C764.007874,317.890106 759.923767,321.853363 756.253357,328.203735 
	C758.306091,327.873047 760.118103,327.581146 762.311829,327.257965 
z"/>
<path fill="#000000" opacity="1.000000" stroke="none" 
	d="
M595.297119,334.590942 
	C592.606750,333.923859 591.562256,332.359100 591.884216,330.073975 
	C592.214111,327.732025 593.900818,326.801544 596.112732,326.588593 
	C598.928955,326.317444 601.750488,325.698639 604.552917,325.783539 
	C608.494324,325.902924 610.010742,324.144165 609.883850,320.423676 
	C609.844360,319.265289 609.930847,318.081268 610.134888,316.940338 
	C610.564026,314.540771 611.934937,312.858887 614.491882,312.993469 
	C617.233643,313.137726 618.570251,315.044678 618.845459,317.638428 
	C619.052429,319.588928 617.775757,321.528931 618.787537,323.698120 
	C622.495850,323.698120 626.277039,323.583771 630.048584,323.726349 
	C635.050049,323.915405 638.418152,327.039368 638.086548,331.980438 
	C637.482544,340.980255 635.955933,349.872131 631.242310,357.799835 
	C628.186890,362.938751 622.685547,364.265808 617.943970,361.276794 
	C616.172729,360.160156 614.681274,358.766266 615.319824,356.415985 
	C615.883118,354.342590 617.530640,353.420746 619.547058,353.738800 
	C623.216125,354.317566 624.680481,352.100830 625.685242,349.242523 
	C627.288940,344.680542 628.550171,340.032104 628.858582,335.173370 
	C629.018799,332.649567 627.992310,331.675507 625.325806,331.685272 
	C619.563293,331.706299 615.364502,332.962067 613.745422,339.615997 
	C612.246399,345.776367 608.386414,351.042297 604.458679,356.042084 
	C603.134033,357.728333 601.593872,359.315369 599.902405,360.625183 
	C597.903687,362.172974 595.540588,362.685089 593.661804,360.428894 
	C591.912231,358.327942 592.916504,356.385345 594.590210,354.700806 
	C598.989441,350.272888 602.374268,345.167816 604.789246,339.419800 
	C605.487793,337.757172 606.368835,336.124359 606.039368,333.827026 
	C602.573242,334.098633 599.132935,334.368195 595.297119,334.590942 
z"/>
<path fill="#000000" opacity="1.000000" stroke="none" 
	d="
M696.036316,333.802612 
	C691.336670,345.234161 684.366821,354.314514 674.005798,360.560181 
	C672.304565,361.585693 670.502014,362.457153 668.696472,363.292358 
	C666.065186,364.509491 663.723938,364.232574 662.455994,361.338623 
	C661.234497,358.550568 662.933655,356.853058 665.224915,355.829041 
	C670.657715,353.401031 675.166382,349.791321 678.946838,345.284668 
	C683.216858,340.194397 686.748291,334.675262 688.319092,327.709778 
	C680.414185,327.709778 673.013367,327.683563 665.613037,327.730011 
	C663.960815,327.740356 662.302795,328.181366 660.660461,328.113007 
	C658.177673,328.009705 656.595093,326.651031 656.526245,324.054230 
	C656.457214,321.450073 657.945740,319.927979 660.453857,319.830292 
	C670.579956,319.435822 680.712219,318.909851 690.839661,318.959595 
	C696.343750,318.986633 698.957458,323.189880 697.659302,328.683594 
	C697.278442,330.295288 696.674072,331.854126 696.036316,333.802612 
z"/>
<path fill="#000000" opacity="1.000000" stroke="none" 
	d="
M411.675537,271.342712 
	C406.937195,266.156097 407.388367,260.726868 410.016937,255.259964 
	C415.808929,243.213654 432.071930,238.598038 443.445160,245.664017 
	C448.974823,249.099487 452.024506,254.750122 451.042328,259.740356 
	C449.928467,265.399292 444.912201,270.165649 438.385529,270.887146 
	C434.516846,271.314789 430.964142,272.163910 427.423309,273.772858 
	C421.930969,276.268585 416.696838,275.273956 411.675537,271.342712 
M432.212891,266.358948 
	C434.028992,266.138214 435.858795,265.995697 437.658386,265.680664 
	C441.531708,265.002563 444.686951,263.206635 445.578156,259.105042 
	C446.507477,254.828247 443.914154,252.218765 440.565521,250.232498 
	C430.905518,244.502701 417.860321,249.110153 414.125977,259.542542 
	C412.101288,265.198792 415.054016,269.449951 421.069366,269.826630 
	C424.999786,270.072754 428.012543,267.771301 432.212891,266.358948 
z"/>
<path fill="#000000" opacity="1.000000" stroke="none" 
	d="
M611.099060,263.955902 
	C608.772705,274.520935 600.297913,278.829865 590.541748,274.588440 
	C587.613342,273.315308 584.795410,272.342926 581.548950,272.044952 
	C574.488647,271.396912 569.591797,266.965454 568.457275,260.910980 
	C567.396240,255.248535 570.927063,249.302826 577.255066,246.096054 
	C591.563354,238.845123 607.768250,247.203354 611.099060,263.955902 
M589.138428,268.077606 
	C591.315369,269.282593 593.449158,270.575897 596.039673,270.733337 
	C599.316895,270.932526 602.378540,270.632904 604.401306,267.552460 
	C606.392578,264.520111 605.723877,261.571411 604.200256,258.604797 
	C599.559509,249.568436 586.815002,246.058090 578.386292,251.657089 
	C575.414551,253.631134 572.703430,256.270599 573.619568,260.233673 
	C574.585327,264.411316 577.875671,266.348663 582.019470,266.878357 
	C584.147888,267.150482 586.273010,267.448639 589.138428,268.077606 
z"/>
<path fill="#000000" opacity="1.000000" stroke="none" 
	d="
M388.515198,328.046692 
	C391.022034,328.045502 393.184784,327.830841 395.341095,327.882751 
	C396.809082,327.918060 397.903442,328.826965 397.952515,330.384918 
	C398.001740,331.948456 396.929138,332.885498 395.494904,333.054169 
	C393.351532,333.306244 391.175568,333.265747 389.018402,333.419159 
	C386.422974,333.603790 384.935852,334.734711 385.637726,337.590179 
	C385.964111,337.787476 386.241791,338.101440 386.521393,338.103180 
	C395.754639,338.160858 396.206360,338.544769 395.224670,347.731171 
	C394.873718,351.015167 394.142548,354.324921 393.076508,357.449524 
	C391.703094,361.475220 388.352661,362.448578 384.689117,360.260193 
	C383.406952,359.494354 381.863861,358.678345 382.269226,356.881989 
	C382.633972,355.265625 384.064941,355.284729 385.509399,355.399200 
	C388.768860,355.657501 388.542603,352.906097 389.033661,350.952332 
	C389.627930,348.588043 390.964935,345.677124 388.693329,343.961670 
	C386.724396,342.474731 384.229309,343.064087 383.107971,345.970306 
	C381.538544,350.037842 379.484375,353.860016 376.526672,357.089386 
	C375.024353,358.729645 373.307190,361.316559 370.790466,359.090973 
	C368.356018,356.938110 370.862885,355.297272 372.225159,353.741486 
	C376.887512,348.416962 378.914124,342.116211 379.591858,335.412811 
	C378.906189,334.961609 378.655457,334.689026 378.356445,334.617035 
	C376.146240,334.084900 372.424377,335.757935 372.255859,332.147278 
	C372.077301,328.321350 375.918732,329.178101 378.365875,328.870270 
	C380.761780,328.568878 382.353607,327.956268 381.127899,325.123718 
	C380.246796,323.087555 379.760406,320.974335 382.715210,320.529907 
	C385.242767,320.149750 386.686188,321.792175 387.220886,324.220764 
	C387.496460,325.472382 386.918884,326.943024 388.515198,328.046692 
z"/>
<path fill="#000000" opacity="1.000000" stroke="none" 
	d="
M518.661621,349.962006 
	C515.039795,349.134552 515.564514,346.615723 515.878723,344.334839 
	C516.214172,341.900085 517.278015,339.570251 516.973267,336.778290 
	C516.204529,336.600769 515.437317,336.337891 514.651672,336.259552 
	C512.878784,336.082855 511.108246,335.642944 511.105042,333.560028 
	C511.101898,331.515289 512.845581,330.951111 514.613892,330.780334 
	C516.258606,330.621490 518.048767,330.760223 518.637085,328.639343 
	C519.226562,326.514435 518.840881,323.646637 522.239136,323.599030 
	C523.990662,323.574463 524.567688,324.497742 525.897949,328.770630 
	C526.222717,328.813477 526.549744,328.896118 526.872925,328.883118 
	C529.026794,328.796539 532.029419,327.208466 532.509521,330.767731 
	C532.878357,333.502075 530.207581,334.023163 528.031677,334.397247 
	C524.699036,334.970184 522.545898,336.585358 522.579773,340.569397 
	C524.686340,341.422455 526.655701,340.176758 528.676819,340.014343 
	C533.269958,339.645233 537.418762,340.531677 539.652527,345.067963 
	C541.792847,349.414307 540.141663,354.781586 535.907959,357.893341 
	C533.019348,360.016479 529.656860,360.951172 526.133301,361.234222 
	C524.294861,361.381866 522.169006,361.419403 521.837769,358.969574 
	C521.493469,356.422699 523.582031,356.049835 525.435730,355.878937 
	C527.794006,355.661560 530.068909,355.244324 531.998779,353.812378 
	C534.015747,352.315887 535.258179,350.306671 534.317383,347.781128 
	C533.396240,345.308197 531.097168,345.259918 528.851624,345.339386 
	C524.923645,345.478363 522.327637,348.415344 518.661621,349.962006 
z"/>
<path fill="#000000" opacity="1.000000" stroke="none" 
	d="
M277.026550,357.245850 
	C284.248901,352.708710 289.609741,347.085388 291.961670,338.981812 
	C292.181915,338.222931 292.284821,337.429962 292.655853,335.597778 
	C286.521240,336.068970 280.857025,336.327393 275.246643,337.021393 
	C272.981323,337.301575 273.471375,339.405212 273.854797,341.074463 
	C274.360199,343.274597 274.049713,345.354095 271.492493,345.673920 
	C268.949768,345.991943 268.212433,343.897858 267.901093,341.793427 
	C267.755646,340.810364 267.750305,339.807068 267.668823,338.813965 
	C267.103424,331.923340 267.109222,332.012634 274.096130,331.474670 
	C277.299469,331.228027 280.660461,330.864624 279.440948,325.973816 
	C278.979095,324.121552 279.974915,322.671387 282.064178,322.566833 
	C284.071594,322.466339 285.414154,323.690552 285.240570,325.581665 
	C284.727692,331.169403 288.053864,330.715271 291.852295,330.318848 
	C297.922577,329.685333 300.106049,332.368103 298.621948,338.330688 
	C296.403992,347.241516 291.885620,354.618713 283.686340,359.145660 
	C281.441925,360.384796 278.032654,362.946960 277.026550,357.245850 
z"/>
<path fill="#000000" opacity="1.000000" stroke="none" 
	d="
M418.177521,332.785400 
	C417.292938,330.360992 416.252289,327.986481 419.351105,327.141510 
	C422.164246,326.374420 422.930847,328.723602 423.679810,330.833221 
	C424.386261,332.823120 424.172913,335.156769 425.839752,336.853668 
	C428.192688,336.911377 429.815369,335.265350 431.756134,334.438843 
	C433.680450,333.619354 435.727661,332.728973 436.873169,335.221802 
	C437.868256,337.387360 436.156860,338.558472 434.430878,339.406952 
	C431.003723,341.091827 427.502747,342.666046 424.633484,345.257141 
	C422.905365,346.817719 420.935486,348.550842 421.713257,351.145966 
	C422.533173,353.881805 425.207123,353.919006 427.526001,353.984375 
	C429.841797,354.049652 432.164886,353.815338 434.485870,353.752136 
	C436.088989,353.708466 437.619141,354.081299 437.895660,355.909210 
	C438.220093,358.054077 436.606812,358.950043 434.889954,359.104248 
	C430.929047,359.459930 426.894073,359.837585 422.994049,358.905182 
	C416.581787,357.372192 413.587616,351.189484 417.555542,345.929169 
	C421.030182,341.322662 419.916931,337.498505 418.177521,332.785400 
z"/>
<path fill="#000000" opacity="1.000000" stroke="none" 
	d="
M567.772278,346.582458 
	C566.868469,349.152008 565.748047,351.183838 564.087036,352.856232 
	C560.487488,356.480377 556.141357,355.476868 554.361511,350.649811 
	C552.503357,345.610535 555.736389,339.629822 561.666931,337.135925 
	C568.187195,334.394135 574.950562,336.292206 577.770630,341.655304 
	C580.515015,346.874634 578.668152,353.478333 573.600708,356.379700 
	C572.756165,356.863220 571.795898,357.213989 570.844482,357.422668 
	C569.832825,357.644562 568.823059,357.407501 568.287415,356.379303 
	C567.705811,355.262909 568.346619,354.459229 569.191467,353.856415 
	C571.102295,352.492950 572.932922,351.086029 573.653137,348.698914 
	C574.780396,344.962616 573.602844,342.740387 569.653564,341.219574 
	C568.022949,342.517914 568.546082,344.584930 567.772278,346.582458 
M560.439697,349.396576 
	C562.969604,347.478790 564.153992,345.129669 563.145813,341.771667 
	C558.469482,344.657776 558.006958,345.789978 560.439697,349.396576 
z"/>
<path fill="#000000" opacity="1.000000" stroke="none" 
	d="
M368.982483,332.694092 
	C372.069702,334.459106 372.532440,336.409760 369.451294,337.912994 
	C366.705231,339.252747 367.378571,341.265350 367.447968,343.357086 
	C369.204773,344.515320 372.535309,342.816589 372.682281,346.033112 
	C372.808899,348.804321 369.991211,349.074524 368.131653,349.910461 
	C365.415070,351.131653 362.626160,352.235443 359.783264,353.115265 
	C358.176025,353.612701 356.329224,353.557709 355.748413,351.392334 
	C355.268890,349.604614 356.294800,348.436371 357.900421,348.037384 
	C360.527924,347.384430 361.777710,346.041016 361.778595,343.165802 
	C361.779419,340.506683 360.789093,339.212097 358.240845,338.723572 
	C357.055603,338.496338 356.186676,337.565094 356.205048,336.226166 
	C356.220215,335.121552 356.942413,334.125732 357.932587,334.064270 
	C361.760712,333.826782 361.867401,331.296112 361.747772,328.444519 
	C361.681396,326.861176 362.080200,325.300446 363.958801,325.098602 
	C365.985046,324.880890 366.897919,326.211548 367.229492,328.067169 
	C367.507355,329.622284 366.815796,331.492920 368.982483,332.694092 
z"/>
<path fill="#000000" opacity="1.000000" stroke="none" 
	d="
M321.905518,356.824707 
	C329.087585,352.378845 331.896423,345.996490 331.922333,338.131439 
	C331.929474,335.969055 331.902405,333.805969 331.947937,331.644440 
	C331.997498,329.290527 330.866272,326.005493 334.571625,325.723846 
	C338.446899,325.429199 338.278381,328.712769 338.312805,331.401398 
	C338.374451,336.221039 338.511505,341.039734 337.263214,345.778595 
	C335.616150,352.031372 332.294708,357.049622 326.504272,360.083374 
	C323.633820,361.587250 321.125275,361.607391 321.905518,356.824707 
z"/>
<path fill="#000000" opacity="1.000000" stroke="none" 
	d="
M471.550476,344.141449 
	C469.985474,342.397858 469.429108,340.707458 469.876648,338.778625 
	C470.157440,337.568420 470.883087,336.657867 472.154083,336.382721 
	C473.437958,336.104858 474.867035,336.559601 474.980499,337.759064 
	C475.309021,341.231110 478.205231,342.626709 480.096802,344.847687 
	C483.309662,348.620087 483.766510,353.872162 481.269318,357.333282 
	C478.799347,360.756653 473.855682,361.982849 469.547760,360.116272 
	C467.340912,359.160065 464.958405,357.802673 466.029236,354.969513 
	C467.096405,352.145966 469.283997,353.938202 471.108002,354.476471 
	C472.878418,354.998932 474.837708,355.469360 476.106567,353.576904 
	C477.288696,351.813904 476.628845,349.966797 475.516327,348.450562 
	C474.443787,346.988800 473.059906,345.755463 471.550476,344.141449 
z"/>
<path fill="#000000" opacity="1.000000" stroke="none" 
	d="
M510.662964,234.305725 
	C510.592529,237.704330 508.966736,237.269043 507.091675,236.168381 
	C502.428314,233.430984 501.601410,228.219406 505.270630,223.901154 
	C506.860016,222.030624 508.876312,220.557785 509.223022,217.819733 
	C509.373138,216.634201 510.433777,215.849731 511.769348,215.905502 
	C513.098267,215.961029 513.862610,216.825043 514.234802,218.004242 
	C515.323669,221.453491 515.036743,224.882370 511.909241,226.900528 
	C508.619507,229.023392 508.935547,231.208084 510.662964,234.305725 
z"/>
<path fill="#000000" opacity="1.000000" stroke="none" 
	d="
M322.996582,343.130463 
	C319.407410,346.334076 317.348145,345.818787 316.977264,341.782898 
	C316.628601,337.988312 316.809082,334.144043 316.782501,330.321442 
	C316.769531,328.456879 317.424744,326.955872 319.517914,326.866821 
	C321.758118,326.771545 322.947174,328.246948 323.027954,330.273651 
	C323.193176,334.420013 323.099487,338.576660 322.996582,343.130463 
z"/>
<path fill="#000000" opacity="1.000000" stroke="none" 
	d="
M519.823242,247.334747 
	C518.895691,250.221024 516.817688,251.728912 515.103760,253.513870 
	C514.019226,254.643402 512.770020,255.646210 511.264130,254.218216 
	C509.709625,252.744095 509.373932,250.777634 510.981873,249.373550 
	C514.092712,246.657181 515.748718,243.955307 512.996887,240.018204 
	C512.444458,239.227798 512.854187,238.026062 513.909729,237.488403 
	C514.950684,236.958145 515.907898,237.468155 516.653198,238.109009 
	C519.359436,240.436218 520.708679,243.318497 519.823242,247.334747 
z"/>
<path fill="#000000" opacity="1.000000" stroke="none" 
	d="
M480.420288,333.644775 
	C477.104584,335.067657 474.227112,336.295959 474.099579,331.028687 
	C474.050598,329.005524 471.704773,329.043182 470.364624,328.205750 
	C469.137085,327.438629 468.328613,326.455933 468.622223,324.942810 
	C468.927216,323.371033 470.163574,322.615051 471.550751,322.842163 
	C475.572845,323.500763 479.184113,325.321899 481.903809,328.288757 
	C483.458313,329.984558 482.573334,332.040680 480.420288,333.644775 
z"/>
<path fill="#000000" opacity="1.000000" stroke="none" 
	d="
M567.630859,189.666519 
	C568.967346,192.407730 569.908752,194.898972 570.165649,197.567749 
	C570.337585,199.353882 569.819153,201.029083 567.802551,201.376968 
	C565.600403,201.756897 564.974609,200.161789 564.749268,198.353088 
	C564.242798,194.286865 562.769348,190.664963 559.889587,187.678894 
	C558.797913,186.546860 557.755737,185.234970 559.236511,183.844391 
	C560.629578,182.536163 562.041748,183.540985 563.239380,184.470261 
	C564.958801,185.804382 566.424805,187.382935 567.630859,189.666519 
z"/>
<path fill="#000000" opacity="1.000000" stroke="none" 
	d="
M390.515930,253.790741 
	C390.582764,250.068192 392.412292,248.156036 395.647766,248.004791 
	C398.194855,247.885727 399.975159,249.478897 400.826752,251.847076 
	C401.734741,254.372177 400.637909,256.392029 398.667236,257.876343 
	C395.620239,260.171295 392.467957,258.680389 390.515930,253.790741 
z"/>
<path fill="#000000" opacity="1.000000" stroke="none" 
	d="
M454.362976,233.638321 
	C456.670471,236.524796 456.835999,239.118408 454.377411,241.509033 
	C452.638184,243.200165 450.567932,243.484711 448.415253,242.256897 
	C445.859436,240.799149 445.286530,238.424149 445.838409,235.793442 
	C446.607300,232.128128 449.774780,231.245102 454.362976,233.638321 
z"/>
<path fill="#000000" opacity="1.000000" stroke="none" 
	d="
M617.921875,254.890213 
	C619.252991,249.527008 621.978821,247.629135 625.428711,249.312241 
	C627.579285,250.361435 628.663025,252.160034 628.449646,254.572678 
	C628.235046,256.998596 626.839478,258.628876 624.497742,259.117737 
	C621.277466,259.789948 618.972473,258.564575 617.921875,254.890213 
z"/>
<path fill="#000000" opacity="1.000000" stroke="none" 
	d="
M502.757660,242.570526 
	C504.973358,241.899658 507.064850,239.416046 508.680573,242.325989 
	C509.984283,244.674011 507.837219,245.820694 506.119080,246.904617 
	C504.173798,248.131836 503.981964,249.697296 505.348145,251.514709 
	C506.090851,252.502686 506.610870,253.621429 505.497803,254.604065 
	C504.245667,255.709412 503.043335,254.927750 501.890503,254.204666 
	C497.035248,251.159363 497.235046,246.754166 502.757660,242.570526 
z"/>
<path fill="#000000" opacity="1.000000" stroke="none" 
	d="
M569.643372,244.128815 
	C564.200500,243.491974 562.042175,240.860672 563.682617,237.317657 
	C564.647644,235.233383 566.282043,233.801865 568.681580,233.868591 
	C571.076294,233.935196 572.754761,235.297836 573.325012,237.629272 
	C574.058228,240.626572 572.807068,242.763580 569.643372,244.128815 
z"/>
<path fill="#000000" opacity="1.000000" stroke="none" 
	d="
M450.738770,194.916779 
	C450.860291,190.738022 451.812836,187.256409 454.292542,184.349548 
	C455.036682,183.477234 456.007263,182.587936 457.307709,183.238113 
	C458.785248,183.976837 458.910706,185.284012 458.271912,186.643173 
	C456.909668,189.541855 456.261292,192.598587 455.895203,195.762207 
	C455.720276,197.273880 455.102631,198.923782 453.280457,198.920517 
	C451.071167,198.916565 450.823334,197.089661 450.738770,194.916779 
z"/>
<path fill="#000000" opacity="1.000000" stroke="none" 
	d="
M490.347900,352.539001 
	C489.151733,350.546753 488.118225,348.876648 487.088226,347.204376 
	C486.342926,345.994324 485.963928,344.765717 487.216156,343.658112 
	C488.378876,342.629639 489.641876,342.815277 490.850830,343.588959 
	C493.140442,345.054169 494.688934,347.178406 495.846039,349.572266 
	C496.712372,351.364594 497.685089,353.473572 495.585571,354.920959 
	C493.173584,356.583832 491.652466,354.927704 490.347900,352.539001 
z"/>
<path fill="#000000" opacity="1.000000" stroke="none" 
	d="
M368.116577,228.998596 
	C364.367706,226.612701 362.522064,222.644211 358.860474,220.555511 
	C357.962372,220.043198 357.618286,219.025726 358.193298,217.972900 
	C358.622833,217.186386 359.345062,216.878876 360.219177,216.791351 
	C363.533020,216.459564 370.959656,223.456940 370.732605,226.764023 
	C370.640808,228.101196 369.732178,228.765121 368.116577,228.998596 
z"/>
<path fill="#000000" opacity="1.000000" stroke="none" 
	d="
M461.269257,353.113983 
	C460.536743,354.649841 460.125824,355.954346 459.338348,356.965637 
	C458.293762,358.307129 456.751617,358.550201 455.419678,357.400635 
	C452.493073,354.874878 454.799469,352.582611 456.058014,350.451447 
	C457.321777,348.311554 458.305054,345.226440 461.775757,346.323364 
	C463.523560,346.875793 463.385284,348.601288 462.738342,350.099304 
	C462.347595,351.004150 461.864716,351.869202 461.269257,353.113983 
z"/>
<path fill="#000000" opacity="1.000000" stroke="none" 
	d="
M499.061615,327.182190 
	C499.161438,329.555389 498.161804,331.000763 496.200958,330.504517 
	C493.344696,329.781586 492.797363,326.751770 491.496185,324.565094 
	C490.939148,323.628998 491.584564,322.586548 492.585236,322.167053 
	C494.879639,321.205200 496.328003,322.661194 497.595734,324.223175 
	C498.201416,324.969360 498.532928,325.938019 499.061615,327.182190 
z"/>
<path fill="#000000" opacity="1.000000" stroke="none" 
	d="
M487.651550,330.287170 
	C486.972260,328.382874 484.839050,326.880005 486.950623,325.219177 
	C488.310028,324.149994 489.798981,324.884430 490.800934,326.154816 
	C492.091797,327.791595 494.051025,329.624725 492.512878,331.742096 
	C490.607239,334.365295 488.940613,332.911865 487.651550,330.287170 
z"/>
<path fill="#000000" opacity="1.000000" stroke="none" 
	d="
M422.247742,256.969238 
	C423.945770,256.855499 424.795135,257.514954 425.219238,258.731201 
	C425.963745,260.866302 426.152252,262.962128 424.297607,264.657532 
	C423.185059,265.674561 421.867554,265.717133 420.719086,264.712708 
	C418.917603,263.137207 419.360992,261.093719 419.982269,259.221100 
	C420.259583,258.385223 421.220459,257.776093 422.247742,256.969238 
z"/>
<path fill="#000000" opacity="1.000000" stroke="none" 
	d="
M439.106628,255.352814 
	C440.398651,257.290314 440.785706,259.033356 439.540710,260.681274 
	C438.805206,261.654816 437.604675,261.929413 436.421814,261.368073 
	C434.627228,260.516418 433.845490,258.940704 433.522980,257.071533 
	C433.316010,255.871902 433.380280,254.669510 434.504608,254.003540 
	C436.220123,252.987427 437.636383,253.798187 439.106628,255.352814 
z"/>
<path fill="#000000" opacity="1.000000" stroke="none" 
	d="
M581.764160,262.645416 
	C578.167542,260.301910 578.370239,256.313110 581.854004,254.840942 
	C584.067261,253.905670 585.488220,254.819595 585.526550,257.167053 
	C585.565979,259.589905 584.726318,261.706726 581.764160,262.645416 
z"/>
<path fill="#000000" opacity="1.000000" stroke="none" 
	d="
M593.093506,262.038208 
	C593.700439,259.712158 594.133972,257.439178 596.908813,258.100372 
	C598.793701,258.549530 599.227844,260.292816 599.250488,262.057770 
	C599.273438,263.846405 598.818909,265.543976 596.874451,265.941010 
	C594.217285,266.483582 593.479492,264.545563 593.093506,262.038208 
z"/>
</g></svg>