<svg width="223" height="85" viewBox="0 0 223 85" fill="none" xmlns="http://www.w3.org/2000/svg">
<path d="M201.249 53.994C201.034 51.3621 201.483 48.8761 198.501 47.5027C197.424 47.0069 196.614 46.6352 195.435 46.7938C185.271 48.1604 175.292 36.2371 178.477 26.5766C179.37 23.8678 181.17 21.8074 183.801 19.831C177.835 17.0299 172.074 15.9692 166.054 16.4868C162.671 16.7777 159.328 17.4922 156.174 18.8164C154.209 19.6417 152.912 19.2615 152.579 17.0631C151.915 12.6862 148.869 10.3005 145.291 8.5102C143.115 7.42137 140.704 6.80102 137.963 5.8133C137.237 10.7012 135.303 15.1231 136.058 19.8895C136.438 22.2886 137.187 24.674 140.107 25.5351C141.79 26.0312 141.944 27.4596 140.89 28.7262C138.096 32.0867 135.882 35.7411 134.523 39.9143C134.317 40.5453 133.714 41.0877 133.2 41.5714C129.74 44.8297 128.135 48.7104 129.06 53.4847C129.157 53.9855 129.165 54.5084 129.165 55.021C129.165 55.3151 129.066 55.6092 128.978 56.0793C126.616 56.2726 125.336 55.2997 125.115 52.9199C124.705 48.5161 125.549 44.3945 128.751 41.2374C132.256 37.7814 132.736 32.7023 135.804 29.0493C136.561 28.1473 135.592 27.3389 135.052 26.6226C132.489 23.2231 131.727 19.4117 132.417 15.2659C132.956 12.0313 133.446 8.78655 134.08 5.57038C134.721 2.32017 136.195 1.47132 139.414 2.4319C146.026 4.40508 152.351 6.79385 155.601 13.6484C156.484 15.5101 157.982 14.3022 159.124 14.0176C168.926 11.5733 178.311 12.4722 187.249 17.2969C190.726 19.1733 193.865 21.511 196.354 24.5759C197.457 25.9335 198.47 26.1722 200.059 25.6137C205.394 23.7374 210.841 24.4544 216.24 25.2499C218.591 25.5961 219.48 27.2974 219.013 29.5816C217.381 37.5544 214.983 44.9328 206.252 48.165C203.808 49.0696 204.229 51.7857 205.061 53.4899C207.795 59.0878 210.043 64.7538 210.239 71.0762C210.281 72.4173 211.359 72.6538 212.466 72.6628C214.732 72.6813 216.998 72.6648 219.263 72.7014C220.601 72.723 222.224 72.6224 222.341 74.4536C222.464 76.3628 220.774 76.4295 219.477 76.4401C213.61 76.4882 207.737 76.565 201.876 76.3517C199.445 76.2633 197.211 76.4113 194.982 77.4291C192.363 78.6251 189.672 79.7282 186.79 80.1005C183.026 80.5867 179.51 79.9808 176.697 77.1594C176.06 76.52 175.363 76.289 174.491 76.2923C163.181 76.3361 151.87 76.3727 140.559 76.3815C139.564 76.3823 138.568 76.1756 137.203 76.0243C138.33 72.3152 140.932 69.145 138.814 65.1539C141.023 65.0494 142.217 66.0944 142.784 67.2719C144.938 71.7451 149.176 72.3506 153.183 72.562C160.372 72.9412 167.595 72.6482 174.803 72.7059C176.382 72.7186 177.202 72.0003 177.894 70.6797C180.223 66.2383 184.11 64.0726 188.985 64.1728C193.765 64.271 197.431 66.5401 199.387 71.1181C200.553 73.8484 202.937 72.6265 204.773 72.5335C206.688 72.4365 206.222 70.6371 206.186 69.3602C206.032 63.8537 203.79 59.0094 201.249 53.994ZM196.983 32.7166C197.418 33.9507 197.495 35.3368 198.686 36.5791C199.52 35.8007 200.346 35.0673 201.129 34.2922C202.564 32.8732 204.32 32.0512 206.235 31.5502C207.162 31.3078 208.236 31.2256 208.574 32.3637C208.864 33.342 207.941 33.7885 207.201 34.1386C205.414 34.9831 203.649 35.9052 202.551 37.5908C201.602 39.0485 200.326 39.4391 197.769 38.799C200.016 41.0009 197.418 44.0835 200.521 44.9053C202.723 45.4884 205.03 44.8505 207.06 43.6859C207.857 43.2287 208.64 42.7036 209.314 42.0846C213.083 38.6264 214.275 34.018 215.313 29.1033C209.52 27.7209 204.104 27.4043 198.857 30.0105C197.923 30.4749 196.554 30.7143 196.983 32.7166ZM186.666 72.2375C187.905 72.5644 188.8 73.3836 189.738 74.2117C191.774 76.0107 193.553 74.3666 194.891 73.2599C196.438 71.9815 194.949 70.6966 193.968 69.6785C191.601 67.2228 185.181 66.5435 182.942 70.5853C183.9 71.379 184.944 71.9961 186.666 72.2375Z" fill="black"/>
<path d="M56.0191 72.6959C61.8225 72.3116 67.4551 73.7098 72.8003 71.3074C74.622 70.4886 76.1795 69.5974 77.2641 67.761C79.7169 63.6082 84.2119 63.0825 88.2879 61.8244C89.5238 65.3484 89.2984 65.7141 85.983 66.3469C83.9407 66.7366 82.0757 67.5069 80.5678 69.718C83.3098 70.7675 85.7987 71.8554 88.3786 72.6481C89.5914 73.0207 90.6118 73.3689 90.5912 74.7332C90.5677 76.2959 89.2147 76.4189 88.1092 76.4204C84.92 76.4245 81.7308 76.2389 78.5413 76.2287C68.754 76.1972 58.9663 76.2338 49.1791 76.1907C47.4485 76.1831 46.3075 76.9427 44.8638 77.8743C42.4156 79.4542 39.4787 80.6011 36.3258 80.2466C35.5117 80.1551 34.6391 80.0656 33.9212 79.7145C24.3422 75.031 14.0526 76.5136 3.96745 76.1728C2.4861 76.1227 0.00995391 76.986 3.11417e-05 74.5885C-0.0101939 72.1181 2.49985 72.8503 4.12904 72.6936C6.55961 72.4599 9.54732 73.7149 11.2902 72.0784C12.8726 70.5927 12.089 67.5987 12.6175 65.3175C13.4554 61.7013 14.557 58.176 16.345 54.8957C16.9346 53.8141 17.4529 52.7432 17.5281 51.4397C17.6674 49.0243 17.4359 47.2357 14.591 46.2273C11.4275 45.106 9.16528 42.5812 7.59312 39.5488C5.73193 35.9589 4.54565 32.1495 3.81024 28.1876C3.31348 25.5115 4.51615 23.9073 7.11514 23.6663C12.2151 23.1936 17.3671 22.3067 22.394 24.1021C23.9575 24.6605 24.9925 24.451 26.1691 23.1611C36.1833 12.1827 48.5965 8.83942 62.8859 12.1426C65.3534 12.713 66.6353 12.5719 68.0308 10.1397C71.5935 3.92997 78.036 1.88778 84.4195 0.102954C86.2787 -0.416922 87.5964 1.11028 87.7875 2.92534C88.2497 7.31482 89.5952 11.562 89.7303 16.0029C89.8504 19.9507 88.3755 23.205 85.4232 26.2266C89.1334 30.4545 89.8782 36.2651 93.8064 40.4437C97.1342 43.9836 97.4148 48.6056 96.9495 53.235C96.7351 55.3679 95.3288 55.8807 93.4571 55.629C93.3114 55.4207 93.0762 55.2354 93.1021 55.0998C94.2904 48.8772 92.6604 43.7241 88.1015 39.1214C86.1948 37.1964 86.1099 33.7783 84.3494 31.4418C83.1136 29.8014 81.7876 28.2281 80.5718 26.5736C79.1402 24.6254 79.6491 23.2741 82.0612 23.1105C83.3584 23.0225 83.8844 22.348 84.4309 21.4936C85.9994 19.0416 86.5048 16.3357 85.9763 13.5073C85.4128 10.4919 84.6687 7.51021 84.0053 4.52214C77.7215 4.7648 71.3567 9.40624 69.913 15.074C69.314 17.4256 68.2601 17.8832 66.1653 17.0628C63.1841 15.8953 60.0718 15.2018 56.9152 14.6808C55.7881 14.4947 54.6953 14.3626 53.3317 14.8271C54.2275 19.0881 55.9922 23.0679 56.3674 27.3604C56.5279 29.1964 56.806 31.025 57.1041 32.845C57.3211 34.1698 57.3305 35.4442 55.7948 35.852C54.2668 36.2578 53.579 35.074 53.0651 33.9091C51.737 30.8985 50.4602 27.8655 49.1475 24.8481C48.2861 22.8679 47.443 20.8779 46.5117 18.9305C44.9815 15.7308 42.9298 15.3633 40.0792 17.5839C38.6197 18.7208 39.5332 19.8132 39.9966 20.8561C42.0438 25.4634 44.0435 30.0846 45.3609 34.9666C45.5214 35.5614 45.6423 36.1672 45.8143 36.7584C46.1501 37.9125 46.3261 39.0791 45.002 39.691C43.6112 40.3338 42.6126 39.5668 41.8918 38.4433C39.7256 35.0666 37.6028 31.6621 35.4468 28.2789C34.7841 27.2389 34.1356 26.178 33.3579 25.2266C32.6551 24.3668 32.1368 22.6287 30.5599 23.8046C29.3192 24.7298 27.6494 25.7934 29.2457 27.7945C29.9702 28.7028 30.1687 29.6773 29.1509 30.508C28.1005 31.3653 27.2228 30.6493 26.3768 30.0561C20.5835 25.9933 14.2723 26.206 7.78281 27.6141C8.23892 37.1113 12.9922 42.8172 21.583 44.2917C22.5607 44.4595 23.4444 44.6499 23.6809 45.747C23.8932 46.7313 23.2601 47.3314 22.4588 47.6371C21.276 48.0883 20.8137 48.9855 21.0728 50.0668C21.714 52.7436 20.3889 54.8271 19.2982 57.0443C17.4227 60.8569 16.134 64.8665 15.9793 69.1466C15.932 70.4554 15.2703 72.4228 17.452 72.5563C19.3029 72.6695 21.4499 73.5816 22.779 70.8959C25.6473 65.0998 31.7432 62.7499 37.8741 64.7611C40.7381 65.7006 43.1188 67.367 44.2929 70.1656C45.1717 72.2602 46.5155 72.8379 48.6031 72.7276C50.9661 72.6029 53.3408 72.6972 56.0191 72.6959ZM28.9057 74.3018C30.2954 75.1559 31.4361 75.1199 32.6548 73.7908C34.5413 71.7334 37.8816 72.3185 39.8875 70.2558C36.4435 66.8752 31.3904 66.6803 27.8985 69.686C25.7596 71.5271 25.9242 72.695 28.9057 74.3018Z" fill="black"/>
<path d="M95.5048 78.3399C93.4838 73.3999 93.0362 68.3889 92.4759 63.3977C92.2046 60.9816 93.1108 59.4803 95.5726 58.8984C105.144 56.6357 114.83 56.3691 124.219 59.0705C127.36 59.9744 130.758 61.8795 133.477 64.0561C137.762 67.4859 135.474 75.4108 129.622 77.0062C126.31 77.9093 123.517 78.7438 122.139 82.2292C121.585 83.63 120.103 84.1245 118.578 84.3056C112.624 85.0125 106.677 84.9404 100.744 84.1521C97.5355 83.7258 96.7989 80.8966 95.5048 78.3399ZM103.815 71.1046C104.059 72.3685 104.736 73.423 105.696 74.2012C107.099 75.3392 108.215 77.1232 110.21 77.1592C112.267 77.1964 116.434 72.2194 116.376 70.1097C116.342 68.8736 115.789 67.9733 114.701 67.3776C113.656 66.8049 112.725 67.0478 111.848 67.731C111.287 68.1673 110.741 68.6216 110.213 69.0478C105.78 66.1518 104.563 66.4681 103.815 71.1046ZM126.819 68.6121C126.978 70.2711 125.605 71.8719 126.48 73.5868C130.02 73.0459 131.639 71.4317 131.382 68.8223C131.248 67.4591 130.609 66.5003 129.192 66.2323C127.68 65.9461 127.231 66.9582 126.819 68.6121ZM109.519 61.8371C112.032 61.8371 114.545 61.8371 117.058 61.8371C112.604 61.2097 108.161 60.5791 103.726 61.8301C105.459 61.8301 107.191 61.8301 109.519 61.8371Z" fill="black"/>
<path d="M50.2532 65.0631C47.3241 61.862 47.603 58.5112 49.2279 55.1371C52.8083 47.7022 62.8615 44.8535 69.8921 49.2146C73.3103 51.3349 75.1955 54.8224 74.5883 57.9023C73.8998 61.3949 70.7989 64.3367 66.7644 64.782C64.3729 65.0459 62.1767 65.57 59.9879 66.563C56.5928 68.1033 53.3572 67.4894 50.2532 65.0631ZM62.9487 61.9872C64.0713 61.851 65.2024 61.763 66.3149 61.5686C68.7092 61.1501 70.6597 60.0416 71.2106 57.5102C71.7851 54.8706 70.182 53.2601 68.112 52.0342C62.1405 48.4978 54.0764 51.3415 51.768 57.7802C50.5164 61.2712 52.3417 63.8949 56.0601 64.1274C58.4898 64.2793 60.3522 62.8589 62.9487 61.9872Z" fill="black"/>
<path d="M173.53 60.5041C172.092 67.0247 166.853 69.6841 160.822 67.0664C159.012 66.2806 157.27 65.6805 155.263 65.4966C150.898 65.0966 147.871 62.3616 147.17 58.6248C146.514 55.13 148.697 51.4604 152.609 49.4812C161.453 45.006 171.471 50.1646 173.53 60.5041ZM159.954 63.048C161.3 63.7917 162.619 64.5899 164.221 64.687C166.246 64.81 168.139 64.6251 169.389 62.7238C170.62 60.8523 170.207 59.0324 169.265 57.2015C166.396 51.6243 158.518 49.4578 153.308 52.9134C151.471 54.1318 149.795 55.7608 150.361 58.2068C150.958 60.7852 152.992 61.9809 155.554 62.3078C156.869 62.4757 158.183 62.6598 159.954 63.048Z" fill="black"/>
<path d="M111.444 42.2044C111.4 44.3019 110.395 44.0333 109.236 43.354C106.353 41.6645 105.842 38.448 108.11 35.7828C109.093 34.6283 110.339 33.7193 110.554 32.0294C110.646 31.2977 111.302 30.8136 112.128 30.848C112.949 30.8822 113.422 31.4155 113.652 32.1433C114.325 34.2721 114.147 36.3884 112.214 37.634C110.181 38.9442 110.376 40.2925 111.444 42.2044Z" fill="black"/>
<path d="M117.106 50.2457C116.533 52.0271 115.248 52.9578 114.189 54.0594C113.518 54.7565 112.746 55.3755 111.815 54.4941C110.854 53.5843 110.647 52.3706 111.641 51.5041C113.564 49.8275 114.587 48.16 112.886 45.7301C112.545 45.2422 112.798 44.5005 113.451 44.1687C114.094 43.8414 114.686 44.1562 115.147 44.5517C116.819 45.988 117.654 47.767 117.106 50.2457Z" fill="black"/>
<path d="M146.659 14.6536C147.485 16.3455 148.067 17.883 148.226 19.5302C148.332 20.6326 148.012 21.6665 146.765 21.8812C145.404 22.1157 145.017 21.1312 144.878 20.0149C144.565 17.5053 143.654 15.2699 141.874 13.4269C141.199 12.7282 140.555 11.9185 141.47 11.0603C142.331 10.2529 143.204 10.873 143.945 11.4466C145.007 12.27 145.914 13.2442 146.659 14.6536Z" fill="black"/>
<path d="M37.1731 54.2303C37.2144 51.9328 38.3454 50.7526 40.3454 50.6593C41.9199 50.5858 43.0205 51.5691 43.5469 53.0307C44.1082 54.5892 43.4301 55.8358 42.2119 56.7519C40.3284 58.1683 38.3798 57.2481 37.1731 54.2303Z" fill="black"/>
<path d="M76.641 41.7925C78.0674 43.574 78.1698 45.1747 76.6499 46.6502C75.5748 47.6939 74.2951 47.8695 72.9644 47.1117C71.3844 46.212 71.0303 44.7462 71.3714 43.1226C71.8467 40.8604 73.8048 40.3154 76.641 41.7925Z" fill="black"/>
<path d="M177.747 54.9089C178.57 51.5988 180.255 50.4274 182.388 51.4662C183.717 52.1138 184.387 53.2239 184.255 54.7129C184.123 56.2102 183.26 57.2163 181.812 57.5181C179.822 57.9329 178.397 57.1767 177.747 54.9089Z" fill="black"/>
<path d="M106.557 47.3053C107.927 46.8913 109.219 45.3584 110.218 47.1544C111.024 48.6036 109.697 49.3113 108.635 49.9803C107.432 50.7377 107.314 51.7039 108.158 52.8255C108.617 53.4353 108.939 54.1258 108.251 54.7323C107.477 55.4145 106.733 54.932 106.021 54.4858C103.019 52.6062 103.143 49.8874 106.557 47.3053Z" fill="black"/>
<path d="M147.903 48.2671C144.539 47.874 143.204 46.25 144.219 44.0633C144.815 42.7769 145.825 41.8934 147.309 41.9346C148.789 41.9757 149.827 42.8167 150.179 44.2557C150.632 46.1055 149.859 47.4245 147.903 48.2671Z" fill="black"/>
<path d="M74.4007 17.894C74.4758 15.315 75.0646 13.1662 76.5975 11.3721C77.0575 10.8337 77.6575 10.2848 78.4614 10.6861C79.3747 11.142 79.4523 11.9488 79.0574 12.7877C78.2153 14.5767 77.8145 16.4633 77.5882 18.4158C77.4801 19.3488 77.0983 20.3671 75.9719 20.3651C74.6062 20.3627 74.453 19.2351 74.4007 17.894Z" fill="black"/>
<path d="M23.3267 38.9289C21.0092 37.4563 19.8683 35.007 17.6049 33.7179C17.0497 33.4017 16.837 32.7738 17.1924 32.124C17.458 31.6385 17.9044 31.4487 18.4448 31.3947C20.4933 31.19 25.0841 35.5086 24.9438 37.5497C24.887 38.375 24.3254 38.7848 23.3267 38.9289Z" fill="black"/>
<path d="M56.7885 56.192C57.8382 56.1218 58.3632 56.5288 58.6254 57.2795C59.0856 58.5972 59.2022 59.8907 58.0557 60.9371C57.368 61.5648 56.5535 61.5911 55.8436 60.9712C54.73 59.9988 55.0041 58.7376 55.3881 57.5818C55.5595 57.0659 56.1535 56.69 56.7885 56.192Z" fill="black"/>
<path d="M67.2101 55.1944C68.0088 56.3902 68.248 57.466 67.4784 58.4831C67.0238 59.0839 66.2816 59.2534 65.5504 58.907C64.4411 58.3813 63.9578 57.4088 63.7585 56.2552C63.6305 55.5148 63.6703 54.7727 64.3653 54.3617C65.4258 53.7345 66.3012 54.2349 67.2101 55.1944Z" fill="black"/>
<path d="M155.396 59.6953C153.173 58.2489 153.298 55.7871 155.451 54.8785C156.82 54.3012 157.698 54.8653 157.722 56.3141C157.746 57.8095 157.227 59.116 155.396 59.6953Z" fill="black"/>
<path d="M162.399 59.3205C162.774 57.8849 163.042 56.4821 164.758 56.8901C165.923 57.1674 166.191 58.2433 166.205 59.3326C166.22 60.4365 165.939 61.4842 164.737 61.7293C163.094 62.0642 162.638 60.868 162.399 59.3205Z" fill="black"/>
</svg>
